<?xml version="1.0" encoding="iso-8859-1"?>
<!-- Generator: Adobe Illustrator 19.0.0, SVG Export Plug-In . SVG Version: 6.00 Build 0)  -->
<svg version="1.1" id="Layer_1" xmlns="http://www.w3.org/2000/svg" x="0px" y="0px"
     viewBox="0 0 511.992 511.992" style="enable-background:new 0 0 511.992 511.992;" xml:space="preserve">
<g>
	<g>
		<path d="M505.494,84.33c-5.141-4.971-12.459-7.061-19.477-5.483l-226.752,50.581c-7.595,1.685-13.653,7.381-15.829,14.869
			c-2.176,7.467-0.107,15.531,5.397,21.035l41.003,41.003l-55.168,55.168l-134.251-134.25c-8.341-8.341-21.824-8.341-30.165,0
			l-64,64c-4.032,4.032-6.293,9.536-6.251,15.275c0.043,5.717,2.389,11.179,6.528,15.147L219.862,427.69
			c4.117,3.968,9.472,5.973,14.805,5.973c5.461,0,10.923-2.091,15.083-6.251l130.581-130.581l51.477,51.477
			c5.611,5.589,13.824,7.595,21.397,5.291c7.573-2.325,13.205-8.661,14.656-16.427l43.755-233.579
			C512.961,96.533,510.657,89.301,505.494,84.33z"/>
	</g>
</g>
<g>
</g>
<g>
</g>
<g>
</g>
<g>
</g>
<g>
</g>
<g>
</g>
<g>
</g>
<g>
</g>
<g>
</g>
<g>
</g>
<g>
</g>
<g>
</g>
<g>
</g>
<g>
</g>
<g>
</g>
</svg>
